<svg width="40" height="40" viewBox="0 0 40 40" fill="none" xmlns="http://www.w3.org/2000/svg">
  <path d="M6 35h28" stroke="#6E7681" stroke-width="2.4" stroke-linecap="round"></path>
  <circle cx="11" cy="35" r="2.4" fill="#6E7681"></circle>
  <circle cx="29" cy="35" r="2.4" fill="#6E7681"></circle>
  <path d="M20 7 C22.5 13 27 15 27 22.5 C27 28 24 32 20 32 C16 32 13 28 13 22.5 C13 18 16.5 17 17 13 C17.8 15 19 14.5 19 13.5 C19 10.5 18.5 9.5 20 7 Z" fill="#F0883E"></path>
  <path d="M20 16 C21.2 19 23 20 23 24 C23 27.3 21.7 29.5 20 29.5 C18.3 29.5 17 27.3 17 24.5 C17 21.9 18.7 21.5 19 19 C19.4 20.2 20 19.8 20 16 Z" fill="#FFC83D"></path>
  <circle cx="20" cy="35" r="2.9" fill="#F85149"></circle>
</svg>