<svg width="16" height="16" viewBox="0 0 16 16" fill="none" xmlns="http://www.w3.org/2000/svg">
  <path d="M2.4 14 H13.6" stroke="#6E7681" stroke-width="1" stroke-linecap="round"></path>
  <circle cx="4.4" cy="14" r="1" fill="#6E7681"></circle>
  <circle cx="11.6" cy="14" r="1" fill="#6E7681"></circle>
  <path d="M8 2.8 C9 5.2 10.8 6 10.8 9 C10.8 11.2 9.6 12.8 8 12.8 C6.4 12.8 5.2 11.2 5.2 9 C5.2 7.2 6.6 6.8 6.8 5.2 C7.12 6 7.6 5.8 7.6 5.4 C7.6 4.2 7.4 3.8 8 2.8 Z" fill="#F0883E"></path>
  <path d="M8 6.4 C8.48 7.6 9.2 8 9.2 9.6 C9.2 10.92 8.68 11.8 8 11.8 C7.32 11.8 6.8 10.92 6.8 9.8 C6.8 8.76 7.48 8.6 7.6 7.6 C7.76 8.08 8 7.92 8 6.4 Z" fill="#FFC83D"></path>
  <circle cx="8" cy="14" r="1.16" fill="#F85149"></circle>
</svg>