<svg width="16" height="16" viewBox="0 0 16 16" fill="none" xmlns="http://www.w3.org/2000/svg">
  <g transform="translate(0 -1.2) translate(8 8) scale(1.12) translate(-8 -8)">
    <path d="M9.1 1.6c.5 2-.6 3.1-1.6 4.2C6.3 6.9 5.1 8.1 5.1 10a3.9 3.9 0 1 0 7.8 0c0-1.6-.7-2.9-1.5-4-.2.7-.6 1.3-1.3 1.3-.7 0-1.1-.6-1.1-1.4 0-1.6 1.2-2.6.1-4.3z"
          fill="#F0832B"/>
    <path d="M8 13.4a2 2 0 0 1-2-2c0-1 .6-1.6 1.2-2.3.1.7.5 1.1 1.2 1.1.7 0 1.1-.4 1.4-1 .4.6.9 1.2.9 2.2a2 2 0 0 1-2.7 2z"
          fill="#FFD45E"/>
  </g>
</svg>
